<svg width="435" height="512" viewBox="0 0 435 512" fill="none" xmlns="http://www.w3.org/2000/svg">
<circle cx="216" cy="198.5" r="110.5" stroke="white" stroke-opacity="0.89" stroke-width="16"/>
<path d="M215.254 503.524L212.535 502.451L209.808 503.5C209.766 503.516 208.935 503.785 206.739 503.231C204.606 502.694 201.789 501.529 198.282 499.547C191.277 495.588 182.522 488.946 172.526 479.869C152.594 461.77 128.639 434.827 105.166 402.93C58.1177 338.999 14.1711 256.768 7.5002 187.644C7.57295 122.495 27.6422 78.0268 62.7066 49.6028C98.1357 20.8831 150.131 7.5 216 7.5C281.935 7.5 335.594 20.3911 372.153 48.9133C408.283 77.1013 428.918 121.523 427.008 187.628C424.824 218.474 412.661 254.639 394.618 291.634C376.596 328.588 352.955 365.874 328.368 398.759C303.764 431.668 278.381 459.946 256.971 478.972C246.236 488.511 236.747 495.503 229.041 499.628C225.188 501.69 222.028 502.901 219.56 503.439C217.065 503.983 215.783 503.733 215.254 503.524Z" stroke="white" stroke-width="15"/>
<line x1="218" y1="14.5" x2="218" y2="303.5" stroke="white" stroke-width="15" stroke-linecap="round"/>
<line x1="265" y1="14.5" x2="265" y2="293.5" stroke="white" stroke-width="15" stroke-linecap="round"/>
<line x1="171" y1="14.5" x2="171" y2="293.5" stroke="white" stroke-width="15" stroke-linecap="round"/>
<path d="M209.82 444.324C213.051 447.225 217.949 447.225 221.18 444.324L256.254 412.824C258.873 410.471 259.771 406.747 258.511 403.459C257.252 400.171 254.095 398 250.574 398L180.426 398C176.905 398 173.748 400.171 172.489 403.459C171.229 406.747 172.127 410.471 174.746 412.824L209.82 444.324Z" stroke="white" stroke-width="17" stroke-linejoin="round"/>
</svg>
